<?xml version="1.0" standalone="no"?>
<!DOCTYPE svg PUBLIC "-//W3C//DTD SVG 20010904//EN"
 "http://www.w3.org/TR/2001/REC-SVG-20010904/DTD/svg10.dtd">
<svg version="1.0" xmlns="http://www.w3.org/2000/svg"
 width="294.000000pt" height="226.000000pt" viewBox="0 0 294.000000 226.000000"
 preserveAspectRatio="xMidYMid meet">

<g transform="translate(0.000000,226.000000) scale(0.100000,-0.100000)"
fill="#000000" stroke="none">
<path d="M1217 1550 c-14 -11 -29 -30 -32 -41 -7 -20 -12 -21 -215 -17 -114 1
-212 -1 -217 -6 -4 -4 16 -29 45 -55 28 -26 49 -51 45 -54 -3 -4 -29 -7 -56
-7 -60 0 -157 -24 -211 -53 -29 -15 -55 -20 -87 -18 -51 3 -101 -17 -121 -48
-10 -16 -21 -18 -75 -13 -56 4 -67 2 -103 -22 -45 -29 -84 -97 -95 -165 -5
-31 -18 -54 -45 -81 -50 -50 -62 -112 -35 -180 9 -25 17 -55 16 -67 0 -13 -2
-47 -3 -76 -3 -67 23 -114 77 -143 22 -11 64 -44 92 -72 29 -29 60 -52 68 -52
11 0 15 -11 15 -36 0 -85 89 -151 216 -162 52 -4 76 -12 113 -36 110 -74 327
-107 486 -73 69 14 71 14 111 -9 22 -13 76 -33 119 -44 180 -46 386 -9 498 90
34 29 35 30 93 19 125 -24 283 6 370 69 37 27 41 27 81 16 30 -9 53 -10 78 -3
43 12 113 72 121 103 5 20 10 22 65 18 59 -4 59 -4 103 40 30 30 48 59 56 89
8 31 21 50 42 64 83 54 123 158 99 257 -7 29 -14 85 -15 123 -3 79 -24 133
-67 169 -15 13 -34 39 -42 58 -29 69 -116 111 -165 79 -10 -6 -28 6 -61 39
-36 36 -63 53 -107 66 -39 12 -70 29 -91 51 -18 19 -59 46 -90 61 -52 24 -69
27 -168 27 -86 -1 -121 -5 -160 -21 l-50 -20 -45 20 c-37 17 -68 21 -170 22
-69 1 -141 7 -160 13 -19 6 -70 11 -112 11 -44 0 -78 4 -78 10 0 5 -14 25 -31
45 -36 40 -64 44 -102 15z m76 -27 l26 -28 -54 0 c-30 0 -55 3 -55 6 0 10 25
37 40 42 8 3 15 6 16 6 0 1 12 -11 27 -26z m-167 -108 c8 -20 -20 -62 -46 -70
-20 -6 -50 9 -50 25 0 4 9 19 21 34 23 29 66 35 75 11z m237 -6 c30 -14 46
-53 30 -77 -12 -19 -80 -44 -112 -40 -34 4 -40 28 -7 28 33 0 96 26 96 39 0
14 -29 28 -75 36 -58 10 -67 14 -59 26 8 14 87 6 127 -12z m462 -3 c23 -7 39
-18 37 -25 -1 -7 3 -19 9 -27 10 -13 14 -12 28 0 9 9 39 25 66 38 42 19 67 23
155 23 93 0 111 -3 163 -27 40 -19 63 -38 78 -62 17 -29 27 -36 53 -36 33 0
126 -41 145 -64 9 -11 2 -12 -37 -8 -41 3 -53 0 -78 -21 -30 -25 -32 -25 -74
-11 -52 18 -90 8 -136 -37 -18 -17 -37 -28 -43 -25 -6 4 -11 34 -11 67 0 70
23 104 65 93 14 -3 33 -3 42 1 17 6 17 7 -1 21 -33 24 -79 17 -111 -16 -24
-25 -28 -38 -29 -89 l-1 -60 -39 -7 c-37 -6 -116 -64 -116 -85 0 -23 32 -20
50 4 41 51 121 56 172 10 14 -13 20 -13 33 -3 12 10 13 16 4 27 -14 17 9 45
50 63 34 14 81 -2 88 -29 7 -29 41 -34 49 -7 10 33 45 66 71 66 38 0 65 -18
58 -39 -11 -36 24 -33 56 4 24 27 39 35 66 35 39 0 80 -36 89 -79 9 -44 14
-54 21 -47 12 12 63 -48 74 -87 11 -42 5 -85 -18 -131 -17 -34 -4 -57 21 -37
13 11 16 7 22 -24 15 -80 -23 -186 -75 -215 -18 -9 -21 -6 -31 31 -6 22 -27
57 -45 77 -29 31 -36 34 -44 22 -7 -10 -5 -21 9 -35 50 -53 63 -141 31 -212
-25 -53 -58 -75 -108 -71 -31 2 -39 7 -41 26 -5 30 -42 31 -42 0 0 -12 -9 -41
-21 -65 -54 -111 -179 -117 -232 -10 -12 24 -26 37 -38 37 -15 0 -19 -5 -14
-19 5 -15 -1 -22 -29 -31 -44 -14 -82 -5 -128 32 l-38 29 0 -29 c0 -22 8 -33
38 -49 55 -31 93 -36 140 -20 37 13 43 13 54 -1 10 -12 7 -19 -20 -42 -85 -70
-329 -95 -393 -39 -12 10 -23 19 -25 19 -2 0 -10 -15 -19 -33 -27 -58 -75 -95
-135 -108 -30 -6 -73 -15 -95 -20 -145 -31 -349 12 -419 87 -25 28 -63 27 -53
0 9 -22 -18 -28 -143 -33 -153 -7 -231 12 -425 101 -16 8 -51 17 -78 20 -58 7
-121 38 -143 71 -19 29 -12 75 11 75 8 0 15 8 15 19 0 14 -10 19 -45 23 -56 7
-112 47 -123 91 -8 28 -12 32 -39 29 -57 -5 -108 87 -84 150 9 24 14 27 41 22
46 -10 38 22 -12 43 -39 17 -61 66 -55 120 5 43 41 98 58 88 20 -13 37 8 32
39 -3 19 2 58 11 89 31 106 123 150 199 96 16 -12 35 -18 43 -15 17 6 18 22 3
32 -7 4 0 17 17 35 21 22 37 29 63 29 37 -1 71 -19 71 -38 0 -5 7 -12 15 -16
10 -4 20 5 29 29 18 43 56 62 94 49 17 -6 27 -17 27 -29 0 -38 24 -38 59 -1
59 63 131 39 155 -52 8 -28 18 -42 34 -46 12 -3 30 -18 39 -33 18 -31 56 -69
62 -62 11 11 -27 88 -57 115 -18 17 -39 45 -46 61 -16 38 -57 77 -96 91 -38
13 -11 15 33 2 21 -5 75 -47 138 -107 58 -54 123 -110 145 -124 42 -27 89 -87
82 -105 -2 -6 8 -19 22 -28 21 -14 39 -16 88 -11 37 4 73 2 90 -4 26 -10 31
-8 66 29 44 47 85 53 138 20 l33 -20 15 24 c17 25 55 46 85 46 10 0 33 -12 51
-27 l32 -28 -6 70 c-6 79 -38 172 -75 225 -14 19 -48 56 -76 82 l-51 48 60 -1
c33 0 78 -6 100 -13z m-1026 -79 c-14 -7 -32 -17 -40 -24 -11 -9 -18 -8 -33 2
-20 15 -24 13 49 28 38 9 50 5 24 -6z"/>
<path d="M1235 1520 c-4 -6 5 -10 20 -10 15 0 24 4 20 10 -3 6 -12 10 -20 10
-8 0 -17 -4 -20 -10z"/>
<path d="M2664 850 c-34 -84 -159 -163 -221 -139 -33 12 -52 0 -28 -18 40 -28
123 -9 193 44 57 43 116 153 82 153 -6 0 -17 -18 -26 -40z"/>
<path d="M900 776 c0 -9 18 -15 54 -19 79 -8 142 -39 167 -82 27 -45 49 -33
25 13 -20 38 -67 67 -141 87 -73 19 -105 19 -105 1z"/>
<path d="M376 723 c20 -85 75 -152 156 -192 51 -26 73 -31 133 -31 84 0 148
20 196 59 48 41 29 50 -27 13 -55 -37 -139 -56 -202 -47 -102 15 -202 96 -225
183 -12 47 -42 61 -31 15z"/>
<path d="M1857 695 c-52 -19 -112 -65 -147 -111 -33 -43 -36 -54 -17 -53 6 0
26 19 42 42 67 92 198 135 310 103 48 -14 70 -28 113 -72 57 -59 62 -62 62
-39 0 29 -93 111 -145 128 -59 20 -165 21 -218 2z"/>
</g>
</svg>
